<?xml version="1.0" encoding="UTF-8" standalone="no"?>
<svg
   xmlns:dc="http://purl.org/dc/elements/1.1/"
   xmlns:cc="http://creativecommons.org/ns#"
   xmlns:rdf="http://www.w3.org/1999/02/22-rdf-syntax-ns#"
   xmlns:svg="http://www.w3.org/2000/svg"
   xmlns="http://www.w3.org/2000/svg"
   xmlns:sodipodi="http://sodipodi.sourceforge.net/DTD/sodipodi-0.dtd"
   xmlns:inkscape="http://www.inkscape.org/namespaces/inkscape"
   width="200mm"
   height="200mm"
   viewBox="0 0 200 200"
   version="1.1"
   id="svg8"
   inkscape:version="1.0.1 (3bc2e813f5, 2020-09-07)"
   sodipodi:docname="LOGO.svg">
  <defs
     id="defs2" />
  <sodipodi:namedview
     id="base"
     pagecolor="#ffffff"
     bordercolor="#666666"
     borderopacity="1.0"
     inkscape:pageopacity="0.0"
     inkscape:pageshadow="2"
     inkscape:zoom="1.1080192"
     inkscape:cx="236.52985"
     inkscape:cy="702.20008"
     inkscape:document-units="mm"
     inkscape:current-layer="layer1"
     inkscape:document-rotation="0"
     showgrid="false"
     inkscape:window-width="3816"
     inkscape:window-height="2134"
     inkscape:window-x="10"
     inkscape:window-y="12"
     inkscape:window-maximized="1" />
  <metadata
     id="metadata5">
    <rdf:RDF>
      <cc:Work
         rdf:about="">
        <dc:format>image/svg+xml</dc:format>
        <dc:type
           rdf:resource="http://purl.org/dc/dcmitype/StillImage" />
        <dc:title></dc:title>
      </cc:Work>
    </rdf:RDF>
  </metadata>
  <g
     inkscape:label="Layer 1"
     inkscape:groupmode="layer"
     id="layer1">
    <path
       style="fill:#00ffcb;fill-opacity:1;stroke-width:0.151806"
       d="m 98.361472,107.33002 -0.45275,0.11149 c -1.07029,0.26309 -6.439946,2.50845 -8.954201,3.74446 -6.568657,3.22914 -11.801539,6.83415 -16.850509,11.60844 -6.427804,6.07811 -11.404962,13.6666 -14.128366,21.54019 -0.70471,2.03736 -0.720741,2.12008 -0.436445,2.2771 0.162259,0.0896 0.580768,0.44939 0.929813,0.79965 0.486448,0.48814 0.658322,0.79573 0.736502,1.31704 0.251799,1.67915 -0.982799,3.1316 -2.661656,3.1316 -2.192162,0 -3.484164,-2.50567 -2.176286,-4.22033 0.481984,-0.63193 1.21311,-1.09172 1.738063,-1.0923 h 0.396712 l 0.0851,-2.99818 c 0.09076,-3.19882 0.402386,-5.46295 1.110677,-8.07301 0.976992,-3.60026 2.53629,-7.08376 4.523949,-10.1058 4.379396,-6.65846 11.680371,-12.70342 19.569085,-16.20266 2.782937,-1.23444 2.710994,-1.1967 2.077848,-1.09141 -2.545787,0.42335 -9.963636,2.41661 -14.042091,3.77322 -6.878553,2.288 -13.132245,5.351 -17.417705,8.5311 -8.294991,6.15546 -11.777939,13.92851 -10.670033,23.81374 0.336325,3.00082 0.990419,5.9175 2.287475,10.20157 1.964376,6.48815 2.023501,13.07586 0.166338,18.52038 -0.607321,1.78045 -1.55854,3.71702 -2.468042,5.02442 -0.365465,0.52538 -0.664811,0.99331 -0.665339,1.04072 v 0 c 4.59e-4,0.0465 0.08563,0.0492 0.189758,0.006 0.104367,-0.0433 1.009513,-0.42024 2.011435,-0.83761 26.153576,-10.89473 41.612972,-22.99456 45.904526,-35.92918 1.385197,-4.17493 1.669626,-7.49111 1.067985,-12.44812 -0.209158,-1.72312 -0.282076,-2.95906 -0.219411,-3.71926 0.445844,-5.4086 2.991598,-11.18708 8.086648,-18.35582 z"
       id="path864" />
    <path
       style="fill:#ffcf00;fill-opacity:1;stroke-width:0.151806"
       d="m 106.11842,104.36743 c -0.003,-0.001 -0.007,-4.6e-4 -0.009,0.002 -0.1271,0.1271 -0.84513,4.68443 -1.06502,6.75953 -0.80897,7.63439 -0.4886,15.94016 0.83613,21.67956 0.7288,3.15756 1.17431,4.82021 1.8021,6.72424 2.29963,6.97462 5.84301,13.27221 10.45329,18.57821 l 1.14448,1.31733 0.59477,-0.39376 c 0.8125,-0.53771 2.08473,-0.55299 2.87543,-0.0347 0.88365,0.57925 1.26604,1.26597 1.26604,2.27264 0,1.55537 -1.16948,2.72431 -2.72747,2.7266 -1.6475,0.002 -2.97885,-1.75469 -2.54928,-3.36406 l 0.15329,-0.57342 -1.09438,-0.60071 c -0.60181,-0.33028 -1.70212,-1.00927 -2.4452,-1.50917 -9.37747,-6.30853 -14.9156,-16.31643 -16.015868,-28.94224 -0.28139,-3.22893 -0.0241,-10.77439 0.40886,-11.9921 0.0713,-0.20043 0.0561,-0.24987 -0.0454,-0.14855 -0.30569,0.30522 -2.27117,7.02859 -3.23478,11.06526 -3.51083,14.70727 -3.095,26.01372 1.23462,33.56759 3.783268,6.60067 10.461258,10.82237 20.779678,13.1366 6.74215,1.51214 11.93784,4.17757 15.95123,8.18301 2.25126,2.2468 4.22129,5.06099 4.76085,6.80075 0.0643,0.25523 0.14987,0.49413 0.26062,0.72522 0.0213,-0.005 -0.0214,0.005 0,0 l -0.0234,-0.51798 c 0,-0.0736 0.13492,-1.1494 0.29976,-2.39064 3.05393,-22.9972 1.66202,-40.93117 -4.01753,-51.76213 -3.11237,-5.93531 -7.49609,-10.11236 -13.28454,-12.65863 -4.1743,-1.83623 -5.15199,-2.46207 -7.42992,-4.75433 -3.08517,-3.10457 -6.36073,-8.16369 -8.41072,-12.99042 -0.21231,-0.49988 -0.41449,-0.8887 -0.46876,-0.9055 z"
       id="path862" />
    <path
       style="fill:#0097ff;fill-opacity:1;stroke-width:0.151806"
       d="m 148.19221,85.57131 c -4.43734,-0.0152 -8.45979,0.86353 -12.07602,2.63437 -1.6749,0.82019 -3.53374,2.01827 -5.73425,3.69584 -3.2574,2.48328 -6.53685,3.61807 -12.11842,4.19275 -2.71844,0.27989 -9.07376,0.18114 -10.60747,-0.16485 -0.46192,-0.1042 -0.23795,0.13754 1.2613,1.36359 4.64112,3.7954 9.06295,6.64682 14.3457,9.2507 3.45871,1.70481 4.89739,2.3012 8.27345,3.42899 6.11986,2.04436 11.59112,2.9304 18.14086,2.93769 4.29324,0.005 7.71555,-0.3497 11.30632,-1.17057 l 0.83168,-0.19005 -0.0451,-0.62265 c -0.0475,-0.65772 0.26803,-1.59284 0.70239,-2.082 0.36938,-0.41597 1.38351,-0.8496 1.99573,-0.85361 0.67857,-0.005 1.69238,0.49265 2.0823,1.02084 0.45533,0.61677 0.69981,1.48404 0.57787,2.05027 -0.47162,2.19007 -2.64129,3.0388 -4.37836,1.71286 l -0.65022,-0.49633 -0.974,0.59566 c -3.71379,2.27068 -8.18879,3.92539 -12.73928,4.71104 -2.5626,0.44243 -8.16469,0.47586 -10.70235,0.0637 -7.73701,-1.25649 -15.74422,-4.71159 -21.74626,-9.38354 -0.52184,-0.40619 -0.9488,-0.70036 -0.9488,-0.65377 0,0.19173 4.94828,5.28385 7.13609,7.34363 10.40412,9.79528 19.1257,14.93251 27.47577,16.18369 h 3.1e-4 c 1.82009,0.27271 4.91469,0.26808 6.81171,-0.0101 0.88738,-0.13012 2.42596,-0.50651 3.41891,-0.83672 5.01388,-1.66734 9.23552,-4.60336 14.29292,-9.94005 2.88091,-3.04003 3.93859,-4.05693 5.53828,-5.32301 3.59946,-2.84882 7.60472,-4.79741 11.68493,-5.68562 1.30643,-0.2844 2.07771,-0.34905 4.27578,-0.35817 1.47503,-0.006 2.67044,-0.0186 2.65661,-0.0276 -0.0138,-0.009 -0.76498,-0.57327 -1.66897,-1.25419 -5.00104,-3.767 -11.42161,-8.12993 -15.86585,-10.78117 C 168.10407,89.3814 157.27816,85.60234 148.1922,85.57125 Z"
       id="path860" />
    <path
       style="fill:#c900ff;fill-opacity:1;stroke-width:0.151806"
       d="m 46.145123,66.48166 c -2.216977,0.006 -3.024183,0.0705 -4.27904,0.34008 -2.047651,0.43989 -3.842297,1.08252 -5.968478,2.13715 -3.597676,1.7845 -5.890051,3.59943 -10.853566,8.59336 -3.935911,3.96003 -4.436456,4.41378 -6.503654,5.89614 -3.207161,2.29982 -6.968346,3.99899 -10.4227551,4.70837 -1.97227,0.40504 -4.355253,0.57811 -5.7683464,0.41895 -0.709673,-0.0799 -1.308474,-0.12716 -1.330679,-0.10496 -0.0222,0.0222 1.377934,1.09925 3.1117344,2.39362 17.7405411,13.24428 31.7243321,20.00946 43.9882711,21.28076 0.333972,0.0346 2.041798,0.0401 3.795157,0.0122 2.699306,-0.0429 3.468891,-0.10953 5.020282,-0.43555 4.284038,-0.9003 7.67647,-2.51426 11.697096,-5.56495 2.631195,-1.99645 4.910689,-2.9905 8.507384,-3.70977 2.793109,-0.55857 5.537294,-0.7387 9.462994,-0.62116 1.878599,0.0562 3.80844,0.15427 4.28853,0.21792 0.480083,0.0636 0.872883,0.0756 0.872883,0.0264 0,-0.26575 -4.907182,-4.06681 -7.726999,-5.98509 C 70.102871,86.60671 53.828295,82.88405 39.214215,85.83227 38.40791,85.99494 37.71157,86.12788 37.6668,86.12788 c -0.04475,0 -0.07381,0.3296 -0.06464,0.73235 0.02209,0.9686 -0.404142,1.80649 -1.200516,2.36071 -1.761777,1.22606 -4.146802,-0.0792 -4.146802,-2.26939 0,-1.40872 1.032216,-2.49155 2.489982,-2.61243 0.846142,-0.0702 1.51711,0.16602 2.172133,0.76466 l 0.335636,0.30688 1.030622,-0.6099 c 4.313976,-2.55275 9.109684,-4.17576 14.057507,-4.75758 2.274158,-0.26743 7.775459,-0.0998 10.047684,0.30628 7.227436,1.29164 15.053576,4.78274 20.835423,9.29399 0.521832,0.40716 0.948793,0.68125 0.948793,0.609 0,-0.22361 -7.156252,-7.4665 -9.21186,-9.32334 -9.32979,-8.42766 -17.106598,-12.8718 -24.944574,-14.25468 -0.678834,-0.11977 -2.241861,-0.19732 -3.871065,-0.19272 z"
       id="path858" />
    <path
       style="fill:#5dff00;fill-opacity:1;stroke-width:0.151806"
       d="m 157.59857,18.778586 c -0.029,-0.029 -1.44742,0.55295 -3.15206,1.29332 -12.20558,5.30122 -20.86012,10.07394 -28.22353,15.564598 -9.89489,7.378306 -15.51296,14.965676 -17.25938,23.309096 -0.35359,1.68939 -0.39912,2.25212 -0.40027,4.9426 -10e-4,2.10851 0.076,3.51964 0.25203,4.61882 0.54307,3.39062 0.15126,6.3809 -1.37308,10.47761 -1.15033,3.09152 -3.40428,7.24531 -5.63403,10.38272 -0.51525,0.72499 -0.93694,1.34977 -0.93694,1.3885 0,0.25102 6.00679,-2.24948 9.13388,-3.80228 6.7816,-3.36747 12.01237,-7.01781 16.95459,-11.8317 5.66513,-5.51804 9.58368,-11.08718 12.55011,-17.83725 0.64326,-1.46372 2.04553,-5.32581 2.04553,-5.63344 0,-0.0721 -0.22494,-0.22508 -0.50019,-0.34008 -0.27525,-0.11501 -0.68349,-0.42643 -0.90698,-0.69202 -1.50347,-1.78678 -0.31269,-4.41745 1.99898,-4.41573 2.53781,0.002 3.65448,3.02297 1.73895,4.70481 -0.29364,0.25783 -0.72276,0.50654 -0.95353,0.55267 l -0.41954,0.0839 -0.10081,2.68033 c -0.0554,1.47415 -0.16782,3.19238 -0.24995,3.81858 -1.18862,9.06231 -5.83096,17.22612 -13.40699,23.57684 -3.76738,3.15806 -8.58852,6.13035 -12.74432,7.85716 -0.64872,0.26956 -1.15999,0.50959 -1.13618,0.5334 0.18338,0.18338 9.21219,-2.21945 13.1698,-3.50489 5.58757,-1.81485 11.72561,-4.55559 15.48425,-6.91371 6.6461,-4.16968 10.85532,-9.06602 12.74077,-14.82099 1.89713,-5.79068 1.53537,-11.70229 -1.28028,-20.9217 -1.32839,-4.349636 -1.84941,-7.957256 -1.69893,-11.764994 0.18012,-4.55711 1.52916,-9.06528 3.65225,-12.20558 0.38966,-0.57635 0.68489,-1.07159 0.65585,-1.1006 z"
       id="path856" />
    <path
       style="fill:#ff3300;fill-opacity:1;stroke-width:0.151806"
       d="m 59.376593,8.7943535 c -0.235837,-0.04062 -0.349309,1.179919 -0.788387,5.0736525 -2.553336,22.642878 -0.703184,39.689024 5.440719,50.128414 3.233766,5.49463 7.421286,9.07935 13.724838,11.74928 1.111997,0.471 2.409088,1.08975 2.88254,1.37485 3.955392,2.38181 8.238219,7.89361 11.506153,14.80794 h 3e-4 c 0.743976,1.57413 0.930456,1.86596 1.018166,1.59279 0.2317,-0.72165 0.89307,-5.51402 1.10623,-8.01698 0.26154,-3.07091 0.29758,-9.1323 0.0712,-11.93014 -0.66436,-8.20964 -2.801186,-15.86423 -6.348584,-22.74131 -2.025555,-3.92679 -4.84644,-8.07719 -7.266246,-10.691377 l -1.043669,-1.127869 -0.476172,0.35224 c -0.572224,0.42306 -1.750594,0.571449 -2.519926,0.31755 -0.671817,-0.22173 -1.396374,-1.02663 -1.631918,-1.81279 -0.492891,-1.64512 0.807281,-3.356938 2.549871,-3.356938 0.931126,0 1.274898,0.14058 1.982081,0.810038 0.583229,0.55211 0.857949,1.42289 0.726123,2.302 l -0.09428,0.62887 1.712858,1.03151 C 92.090366,45.4044 97.982572,55.01905 99.609772,68.13878 c 0.34154,2.75479 0.34296,8.91539 0.003,11.46138 -0.1283,0.96017 -0.21176,1.76754 -0.18531,1.7941 0.1422,0.14285 2.176728,-7.04646 3.042358,-10.75068 1.64215,-7.02708 2.34885,-12.39019 2.34885,-17.8245 0,-12.719417 -4.59645,-21.053254 -14.193893,-25.735024 -3.068586,-1.4969 -5.956342,-2.45913 -10.725475,-3.57397 -9.725779,-2.27351 -16.591864,-7.02024 -19.986556,-13.8167535 -0.254984,-0.5105 -0.412239,-0.877704 -0.535768,-0.898979 z"
       id="path847" />
  </g>
</svg>
